<svg id="visual" viewBox="0 0 960 300" width="960" height="300" xmlns="http://www.w3.org/2000/svg" xmlns:xlink="http://www.w3.org/1999/xlink" version="1.1"><path d="M0 52L14.5 52C29 52 58 52 87.2 53C116.3 54 145.7 56 174.8 55.5C204 55 233 52 262 57C291 62 320 75 349 83.5C378 92 407 96 436.2 94.5C465.3 93 494.7 86 523.8 86.5C553 87 582 95 611 100C640 105 669 107 698 106.5C727 106 756 103 785.2 100.5C814.3 98 843.7 96 872.8 99C902 102 931 110 945.5 114L960 118L960 0L945.5 0C931 0 902 0 872.8 0C843.7 0 814.3 0 785.2 0C756 0 727 0 698 0C669 0 640 0 611 0C582 0 553 0 523.8 0C494.7 0 465.3 0 436.2 0C407 0 378 0 349 0C320 0 291 0 262 0C233 0 204 0 174.8 0C145.7 0 116.3 0 87.2 0C58 0 29 0 14.5 0L0 0Z" fill="#d81e5b"></path><path d="M0 88L14.5 92.5C29 97 58 106 87.2 106.5C116.3 107 145.7 99 174.8 98C204 97 233 103 262 112.5C291 122 320 135 349 139.5C378 144 407 140 436.2 139.5C465.3 139 494.7 142 523.8 145.5C553 149 582 153 611 150.5C640 148 669 139 698 137.5C727 136 756 142 785.2 142.5C814.3 143 843.7 138 872.8 136.5C902 135 931 137 945.5 138L960 139L960 116L945.5 112C931 108 902 100 872.8 97C843.7 94 814.3 96 785.2 98.5C756 101 727 104 698 104.5C669 105 640 103 611 98C582 93 553 85 523.8 84.5C494.7 84 465.3 91 436.2 92.5C407 94 378 90 349 81.5C320 73 291 60 262 55C233 50 204 53 174.8 53.5C145.7 54 116.3 52 87.2 51C58 50 29 50 14.5 50L0 50Z" fill="#a22d74"></path><path d="M0 151L14.5 153C29 155 58 159 87.2 155C116.3 151 145.7 139 174.8 136.5C204 134 233 141 262 155C291 169 320 190 349 199.5C378 209 407 207 436.2 206.5C465.3 206 494.7 207 523.8 209.5C553 212 582 216 611 215.5C640 215 669 210 698 209C727 208 756 211 785.2 206C814.3 201 843.7 188 872.8 185.5C902 183 931 191 945.5 195L960 199L960 137L945.5 136C931 135 902 133 872.8 134.5C843.7 136 814.3 141 785.2 140.5C756 140 727 134 698 135.5C669 137 640 146 611 148.5C582 151 553 147 523.8 143.5C494.7 140 465.3 137 436.2 137.5C407 138 378 142 349 137.5C320 133 291 120 262 110.5C233 101 204 95 174.8 96C145.7 97 116.3 105 87.2 104.5C58 104 29 95 14.5 90.5L0 86Z" fill="#653872"></path><path d="M0 181L14.5 183C29 185 58 189 87.2 186.5C116.3 184 145.7 175 174.8 175.5C204 176 233 186 262 201.5C291 217 320 238 349 244.5C378 251 407 243 436.2 238.5C465.3 234 494.7 233 523.8 235C553 237 582 242 611 246C640 250 669 253 698 255C727 257 756 258 785.2 250C814.3 242 843.7 225 872.8 223C902 221 931 234 945.5 240.5L960 247L960 197L945.5 193C931 189 902 181 872.8 183.5C843.7 186 814.3 199 785.2 204C756 209 727 206 698 207C669 208 640 213 611 213.5C582 214 553 210 523.8 207.5C494.7 205 465.3 204 436.2 204.5C407 205 378 207 349 197.5C320 188 291 167 262 153C233 139 204 132 174.8 134.5C145.7 137 116.3 149 87.2 153C58 157 29 153 14.5 151L0 149Z" fill="#343458"></path><path d="M0 301L14.5 301C29 301 58 301 87.2 301C116.3 301 145.7 301 174.8 301C204 301 233 301 262 301C291 301 320 301 349 301C378 301 407 301 436.2 301C465.3 301 494.7 301 523.8 301C553 301 582 301 611 301C640 301 669 301 698 301C727 301 756 301 785.2 301C814.3 301 843.7 301 872.8 301C902 301 931 301 945.5 301L960 301L960 245L945.5 238.5C931 232 902 219 872.8 221C843.7 223 814.3 240 785.2 248C756 256 727 255 698 253C669 251 640 248 611 244C582 240 553 235 523.8 233C494.7 231 465.3 232 436.2 236.5C407 241 378 249 349 242.5C320 236 291 215 262 199.5C233 184 204 174 174.8 173.5C145.7 173 116.3 182 87.2 184.5C58 187 29 183 14.5 181L0 179Z" fill="#202731"></path></svg>