<svg id="visual" viewBox="0 0 960 300" width="960" height="300" xmlns="http://www.w3.org/2000/svg" xmlns:xlink="http://www.w3.org/1999/xlink" version="1.1"><path d="M0 37L17.8 42.5C35.7 48 71.3 59 106.8 64C142.3 69 177.7 68 213.2 70C248.7 72 284.3 77 320 72C355.7 67 391.3 52 426.8 50.5C462.3 49 497.7 61 533.2 70.5C568.7 80 604.3 87 640 88C675.7 89 711.3 84 746.8 79C782.3 74 817.7 69 853.2 69C888.7 69 924.3 74 942.2 76.5L960 79L960 0L942.2 0C924.3 0 888.7 0 853.2 0C817.7 0 782.3 0 746.8 0C711.3 0 675.7 0 640 0C604.3 0 568.7 0 533.2 0C497.7 0 462.3 0 426.8 0C391.3 0 355.7 0 320 0C284.3 0 248.7 0 213.2 0C177.7 0 142.3 0 106.8 0C71.3 0 35.7 0 17.8 0L0 0Z" fill="#d81e5b"></path><path d="M0 73L17.8 81C35.7 89 71.3 105 106.8 110.5C142.3 116 177.7 111 213.2 109C248.7 107 284.3 108 320 107.5C355.7 107 391.3 105 426.8 104.5C462.3 104 497.7 105 533.2 106.5C568.7 108 604.3 110 640 113.5C675.7 117 711.3 122 746.8 119C782.3 116 817.7 105 853.2 101.5C888.7 98 924.3 102 942.2 104L960 106L960 77L942.2 74.5C924.3 72 888.7 67 853.2 67C817.7 67 782.3 72 746.8 77C711.3 82 675.7 87 640 86C604.3 85 568.7 78 533.2 68.5C497.7 59 462.3 47 426.8 48.5C391.3 50 355.7 65 320 70C284.3 75 248.7 70 213.2 68C177.7 66 142.3 67 106.8 62C71.3 57 35.7 46 17.8 40.5L0 35Z" fill="#cf2d78"></path><path d="M0 106L17.8 111C35.7 116 71.3 126 106.8 130.5C142.3 135 177.7 134 213.2 135C248.7 136 284.3 139 320 137C355.7 135 391.3 128 426.8 126C462.3 124 497.7 127 533.2 129.5C568.7 132 604.3 134 640 138C675.7 142 711.3 148 746.8 143C782.3 138 817.7 122 853.2 119C888.7 116 924.3 126 942.2 131L960 136L960 104L942.2 102C924.3 100 888.7 96 853.2 99.5C817.7 103 782.3 114 746.8 117C711.3 120 675.7 115 640 111.5C604.3 108 568.7 106 533.2 104.5C497.7 103 462.3 102 426.8 102.5C391.3 103 355.7 105 320 105.5C284.3 106 248.7 105 213.2 107C177.7 109 142.3 114 106.8 108.5C71.3 103 35.7 87 17.8 79L0 71Z" fill="#be4092"></path><path d="M0 130L17.8 132.5C35.7 135 71.3 140 106.8 142C142.3 144 177.7 143 213.2 144C248.7 145 284.3 148 320 148.5C355.7 149 391.3 147 426.8 147.5C462.3 148 497.7 151 533.2 153.5C568.7 156 604.3 158 640 161C675.7 164 711.3 168 746.8 162.5C782.3 157 817.7 142 853.2 140C888.7 138 924.3 149 942.2 154.5L960 160L960 134L942.2 129C924.3 124 888.7 114 853.2 117C817.7 120 782.3 136 746.8 141C711.3 146 675.7 140 640 136C604.3 132 568.7 130 533.2 127.5C497.7 125 462.3 122 426.8 124C391.3 126 355.7 133 320 135C284.3 137 248.7 134 213.2 133C177.7 132 142.3 133 106.8 128.5C71.3 124 35.7 114 17.8 109L0 104Z" fill="#a851a6"></path><path d="M0 226L17.8 226.5C35.7 227 71.3 228 106.8 226.5C142.3 225 177.7 221 213.2 218.5C248.7 216 284.3 215 320 217.5C355.7 220 391.3 226 426.8 226.5C462.3 227 497.7 222 533.2 218.5C568.7 215 604.3 213 640 212C675.7 211 711.3 211 746.8 210C782.3 209 817.7 207 853.2 211.5C888.7 216 924.3 227 942.2 232.5L960 238L960 158L942.2 152.5C924.3 147 888.7 136 853.2 138C817.7 140 782.3 155 746.8 160.5C711.3 166 675.7 162 640 159C604.3 156 568.7 154 533.2 151.5C497.7 149 462.3 146 426.8 145.5C391.3 145 355.7 147 320 146.5C284.3 146 248.7 143 213.2 142C177.7 141 142.3 142 106.8 140C71.3 138 35.7 133 17.8 130.5L0 128Z" fill="#8d5fb3"></path><path d="M0 247L17.8 247.5C35.7 248 71.3 249 106.8 249C142.3 249 177.7 248 213.2 248.5C248.7 249 284.3 251 320 254.5C355.7 258 391.3 263 426.8 261C462.3 259 497.7 250 533.2 245.5C568.7 241 604.3 241 640 241C675.7 241 711.3 241 746.8 242C782.3 243 817.7 245 853.2 247.5C888.7 250 924.3 253 942.2 254.5L960 256L960 236L942.2 230.5C924.3 225 888.7 214 853.2 209.5C817.7 205 782.3 207 746.8 208C711.3 209 675.7 209 640 210C604.3 211 568.7 213 533.2 216.5C497.7 220 462.3 225 426.8 224.5C391.3 224 355.7 218 320 215.5C284.3 213 248.7 214 213.2 216.5C177.7 219 142.3 223 106.8 224.5C71.3 226 35.7 225 17.8 224.5L0 224Z" fill="#716ab9"></path><path d="M0 262L17.8 265.5C35.7 269 71.3 276 106.8 278C142.3 280 177.7 277 213.2 274C248.7 271 284.3 268 320 268.5C355.7 269 391.3 273 426.8 274C462.3 275 497.7 273 533.2 272C568.7 271 604.3 271 640 267.5C675.7 264 711.3 257 746.8 257C782.3 257 817.7 264 853.2 268C888.7 272 924.3 273 942.2 273.5L960 274L960 254L942.2 252.5C924.3 251 888.7 248 853.2 245.5C817.7 243 782.3 241 746.8 240C711.3 239 675.7 239 640 239C604.3 239 568.7 239 533.2 243.5C497.7 248 462.3 257 426.8 259C391.3 261 355.7 256 320 252.5C284.3 249 248.7 247 213.2 246.5C177.7 246 142.3 247 106.8 247C71.3 247 35.7 246 17.8 245.5L0 245Z" fill="#5572b8"></path><path d="M0 301L17.8 301C35.7 301 71.3 301 106.8 301C142.3 301 177.7 301 213.2 301C248.7 301 284.3 301 320 301C355.7 301 391.3 301 426.8 301C462.3 301 497.7 301 533.2 301C568.7 301 604.3 301 640 301C675.7 301 711.3 301 746.8 301C782.3 301 817.7 301 853.2 301C888.7 301 924.3 301 942.2 301L960 301L960 272L942.2 271.5C924.3 271 888.7 270 853.2 266C817.7 262 782.3 255 746.8 255C711.3 255 675.7 262 640 265.5C604.3 269 568.7 269 533.2 270C497.7 271 462.3 273 426.8 272C391.3 271 355.7 267 320 266.5C284.3 266 248.7 269 213.2 272C177.7 275 142.3 278 106.8 276C71.3 274 35.7 267 17.8 263.5L0 260Z" fill="#3e78b2"></path></svg>